<?xml version="1.0" standalone="no"?>
<!DOCTYPE svg PUBLIC "-//W3C//DTD SVG 20010904//EN"
 "http://www.w3.org/TR/2001/REC-SVG-20010904/DTD/svg10.dtd">
<svg version="1.0" xmlns="http://www.w3.org/2000/svg"
 width="492.000000pt" height="492.000000pt" viewBox="0 0 492.000000 492.000000"
 preserveAspectRatio="xMidYMid meet">

<g transform="translate(0.000000,492.000000) scale(0.100000,-0.100000)"
fill="#000000" stroke="none">
<path d="M1110 4876 c-73 -49 -207 -166 -242 -211 -14 -18 7 -5 55 35 43 36
113 91 155 122 42 32 85 64 95 73 20 17 37 20 37 4 0 -7 16 -8 47 -3 97 14 99
22 8 23 -90 0 -90 0 -155 -43z"/>
<path d="M3353 4885 c79 -48 120 -69 113 -57 -8 14 -142 92 -158 92 -7 0 13
-16 45 -35z"/>
<path d="M3470 4906 c0 -2 7 -7 16 -10 8 -3 12 -2 9 4 -6 10 -25 14 -25 6z"/>
<path d="M3630 4856 c0 -4 45 -51 100 -104 55 -54 114 -120 132 -149 18 -29
63 -96 100 -150 127 -188 193 -338 244 -555 10 -43 19 -76 22 -74 5 5 -34 201
-58 291 -24 90 -90 233 -124 270 -34 36 -88 125 -77 125 5 0 30 -26 57 -57 77
-94 82 -94 20 -3 -79 119 -330 380 -365 380 -8 0 -23 7 -33 17 -10 9 -18 13
-18 9z"/>
<path d="M2255 4620 c-3 -5 3 -10 14 -10 11 0 22 -9 26 -20 5 -14 15 -20 38
-20 18 0 48 -4 67 -10 36 -10 69 3 37 16 -22 8 -22 24 1 25 9 1 -1 7 -23 14
-48 16 -151 19 -160 5z"/>
<path d="M739 4542 c-35 -37 -124 -150 -198 -252 -74 -102 -157 -214 -183
-249 -27 -36 -46 -71 -43 -78 2 -8 1 -12 -4 -8 -5 3 -19 -7 -31 -22 -19 -25
-21 -38 -18 -121 2 -66 7 -95 17 -101 8 -5 11 -16 8 -25 -4 -9 -2 -16 3 -16
21 0 25 114 7 225 -6 36 4 56 14 29 7 -18 8 -18 8 2 1 12 12 35 25 50 52 60
248 326 323 437 25 38 70 95 99 127 30 32 54 60 54 64 0 17 -24 -1 -81 -62z"/>
<path d="M2543 4560 c-1 -11 4 -20 12 -20 8 0 11 7 8 20 -3 11 -8 20 -12 20
-4 0 -7 -9 -8 -20z"/>
<path d="M2540 4520 c0 -5 5 -10 10 -10 6 0 10 5 10 10 0 6 -4 10 -10 10 -5 0
-10 -4 -10 -10z"/>
<path d="M2137 4353 c-3 -5 81 -41 187 -82 179 -70 248 -102 185 -87 -15 3
-72 9 -128 12 -56 4 -104 11 -107 16 -7 11 -245 10 -379 -2 -203 -19 -299 -31
-420 -55 -66 -13 -139 -26 -162 -29 -23 -3 -48 -9 -56 -12 -9 -3 -26 6 -41 23
-26 27 -26 27 8 -57 63 -157 63 -158 89 -155 13 2 30 -1 38 -6 10 -6 3 -9 -21
-9 -35 0 -36 0 -32 -41 3 -31 8 -39 20 -34 12 4 13 3 2 -10 -8 -9 -8 -15 -2
-15 6 0 13 4 16 9 3 5 14 7 24 5 10 -2 26 9 41 27 l25 31 -25 -7 c-21 -6 -19
-3 11 24 19 16 42 31 50 31 8 0 24 7 34 15 13 10 41 15 80 14 34 -1 53 -3 44
-6 -19 -5 -131 -168 -135 -198 -5 -30 -23 -43 -23 -17 0 22 -33 47 -50 37 -5
-3 -11 -1 -15 5 -3 5 -26 10 -51 10 -32 0 -44 -4 -44 -15 0 -8 -8 -15 -17 -14
-11 0 -13 3 -5 6 15 6 16 83 1 136 -5 21 -23 59 -39 85 -16 26 -47 81 -69 122
-22 41 -40 71 -41 65 0 -5 -5 -3 -10 5 -13 20 -13 33 0 25 18 -11 11 10 -21
60 -21 33 -33 44 -39 36 -6 -10 -11 -10 -27 0 -40 25 -100 -14 -163 -106 -17
-25 -35 -43 -40 -40 -5 3 -12 0 -16 -6 -4 -8 -3 -9 4 -5 17 10 15 -9 -1 -23
-8 -6 -18 -7 -22 -3 -5 4 -5 1 -1 -6 5 -7 -8 -30 -33 -59 -41 -46 -41 -46 -41
-129 l0 -83 -74 -60 c-54 -45 -79 -59 -93 -54 -16 6 -16 5 -4 -10 12 -15 11
-16 -16 -11 -37 7 -209 -46 -271 -84 -61 -38 -113 -82 -107 -93 3 -4 -4 -13
-15 -19 -11 -6 -20 -19 -20 -29 0 -10 36 -70 80 -135 44 -64 80 -120 80 -123
0 -3 11 -20 24 -38 21 -27 24 -40 22 -106 -3 -95 -47 -192 -116 -259 -52 -50
-67 -93 -44 -124 8 -11 14 -26 14 -34 0 -20 96 -162 126 -188 23 -19 24 -23
14 -68 -18 -81 -4 -97 115 -131 70 -20 137 -57 164 -90 24 -31 38 -108 51
-285 7 -80 25 -223 41 -318 16 -96 27 -177 25 -181 -14 -22 44 -189 77 -222 7
-8 29 -43 49 -79 20 -36 57 -84 82 -107 25 -22 48 -54 52 -69 9 -34 -3 -526
-16 -649 -22 -222 -24 -275 -8 -275 11 0 17 15 21 53 3 28 17 138 31 242 13
105 27 216 31 247 4 41 11 58 21 58 10 0 14 -13 14 -44 0 -24 -4 -46 -9 -48
-4 -2 -11 -27 -15 -56 -5 -37 -4 -52 4 -47 6 4 10 -3 10 -17 0 -19 -2 -20 -10
-8 -8 11 -10 0 -9 -40 0 -30 -7 -98 -17 -150 -11 -63 -15 -111 -10 -143 l7
-47 296 0 295 0 -5 38 c-3 20 -14 98 -25 172 -26 174 -52 505 -43 565 2 15 91
8 110 -9 9 -7 27 -17 41 -21 24 -8 24 -8 5 -17 -16 -7 -15 -7 6 -3 27 5 66
-25 56 -42 -3 -5 -2 -15 4 -23 7 -12 9 -11 9 5 1 18 1 19 11 2 17 -28 86 -58
207 -88 63 -15 116 -30 118 -32 9 -9 -9 -37 -28 -43 -15 -4 -17 -9 -9 -17 8
-8 14 -8 23 1 20 20 63 14 89 -14 13 -14 41 -35 62 -45 39 -21 49 -35 18 -26
-45 11 -62 -29 -43 -105 8 -32 12 -61 10 -64 -8 -8 -36 7 -42 22 -3 9 -1 12 4
9 6 -3 13 1 17 10 3 10 0 21 -7 25 -7 4 -9 13 -6 19 4 6 0 11 -8 11 -9 0 -16
7 -16 15 0 9 -22 38 -49 65 -36 36 -49 45 -46 30 4 -22 -2 -25 -25 -10 -10 7
-11 10 -2 10 9 0 8 7 -4 25 -9 14 -23 25 -30 25 -8 0 -14 7 -14 15 0 17 -51
41 -105 49 -22 3 -41 10 -43 15 -2 6 -10 7 -18 4 -9 -3 -19 6 -29 30 -12 29
-18 34 -40 29 -18 -3 -30 1 -39 13 -7 10 -18 15 -24 11 -6 -3 -14 -1 -19 6 -4
7 -23 13 -40 14 -29 0 -33 -3 -33 -26 0 -15 -7 -41 -16 -59 -13 -26 -15 -47
-8 -109 4 -42 7 -83 5 -90 -1 -6 4 -27 12 -45 34 -77 38 -90 29 -99 -5 -5 -6
-29 -2 -54 4 -25 5 -56 2 -70 -3 -15 0 -24 8 -24 7 0 10 6 7 13 -3 8 -1 20 4
28 7 11 9 10 9 -6 1 -18 2 -18 11 3 11 28 2 72 -15 72 -21 1 39 29 62 30 31 0
81 -23 117 -55 23 -20 25 -24 7 -15 -18 9 -26 8 -38 -5 -21 -21 -27 -19 -14 4
14 27 13 34 -5 27 -8 -3 -15 -1 -15 5 0 7 -10 9 -25 5 -14 -4 -25 -2 -25 4 0
5 -9 10 -21 10 -19 0 -19 -1 -5 -16 9 -8 16 -20 16 -25 0 -6 7 -3 16 6 9 9 19
13 22 10 3 -3 0 -11 -6 -17 -7 -7 -12 -19 -12 -28 0 -13 1 -13 10 0 9 13 10
13 10 0 0 -9 -6 -22 -12 -29 -7 -8 -8 -11 -3 -8 6 3 10 -6 10 -18 0 -15 -3
-21 -9 -15 -12 12 -37 13 -33 2 2 -7 -6 -12 -24 -12 -5 0 -7 5 -4 10 3 6 -4
10 -18 10 -21 0 -23 -4 -19 -33 2 -17 9 -38 14 -44 12 -15 149 -18 164 -4 5 5
24 12 42 16 25 5 32 3 32 -9 0 -13 27 -15 195 -16 l196 0 14 32 c8 18 14 27
15 20 0 -7 -5 -22 -10 -32 -10 -19 4 -20 755 -20 675 0 765 2 765 15 0 8 -3
15 -7 16 -60 5 -89 13 -108 27 l-22 16 21 17 c16 14 18 20 9 30 -6 6 -9 17 -6
25 3 9 -2 12 -18 9 -14 -3 -19 -1 -13 5 5 5 24 13 42 16 26 5 32 3 32 -11 0
-15 6 -16 38 -10 20 4 43 11 50 17 6 6 12 9 13 7 0 -2 2 -13 4 -24 7 -35 28
-65 61 -86 17 -10 35 -30 38 -42 5 -22 11 -23 101 -26 60 -1 95 1 95 8 0 6 -8
8 -17 4 -16 -6 -16 -4 1 16 15 16 22 19 28 9 6 -9 7 -6 3 9 -3 12 -1 24 5 28
6 3 8 11 5 16 -4 5 -1 9 6 9 7 0 9 -8 6 -21 -5 -18 -2 -20 18 -15 19 5 23 3
19 -9 -4 -8 -10 -15 -15 -15 -5 0 -9 -5 -9 -11 0 -5 4 -8 9 -5 5 3 11 -1 15
-9 8 -21 38 -19 35 3 -5 51 0 62 32 62 16 0 28 -4 25 -9 -3 -5 20 -12 52 -16
36 -4 68 -15 89 -31 31 -24 35 -24 248 -24 l216 0 -2 116 -1 115 -41 -43 c-22
-24 -40 -47 -39 -51 3 -12 -27 -20 -45 -11 -10 4 -31 9 -48 10 -16 1 -66 11
-110 21 l-79 19 39 20 c36 17 87 84 65 84 -5 0 -13 -7 -18 -16 -7 -12 -11 -13
-16 -5 -9 14 11 41 30 41 8 0 14 8 14 19 0 10 7 24 15 31 8 7 15 20 16 29 0 9
5 4 11 -11 5 -16 14 -28 19 -28 13 0 11 75 -2 121 l-12 38 -62 -3 c-73 -4
-108 -21 -179 -85 -61 -55 -144 -115 -166 -118 -8 -1 -23 -13 -33 -27 -10 -14
-25 -26 -33 -26 -8 0 -28 -15 -45 -32 l-29 -33 -23 27 c-12 14 -32 31 -44 37
-34 17 -117 13 -167 -9 -42 -17 -55 -18 -129 -9 -108 13 -127 17 -127 29 0 6
11 10 24 10 15 0 26 7 29 20 4 14 11 18 24 14 14 -5 15 -4 4 4 -12 9 -12 13
-2 26 8 9 22 16 32 16 36 0 11 69 -48 132 -29 30 -25 55 9 60 20 4 21 5 5 12
-12 6 -24 3 -36 -8 -18 -16 -20 -16 -38 11 -29 42 -33 59 -18 80 19 24 18 31
-2 29 -14 -1 -18 7 -18 39 -1 39 -2 40 -34 40 -29 0 -34 -4 -37 -27 -2 -21 2
-28 14 -28 15 0 15 -2 2 -10 -10 -6 -11 -10 -2 -10 6 0 12 -4 12 -10 0 -5 -9
-10 -21 -10 -29 0 -61 -19 -53 -32 4 -5 1 -14 -7 -19 -16 -9 5 -75 54 -174 52
-103 39 -122 -41 -57 -77 62 -135 127 -171 188 -19 33 -63 103 -97 156 -35 54
-64 106 -64 116 0 16 31 116 75 242 9 25 38 97 65 161 28 64 50 126 50 139 0
22 56 111 138 222 47 63 53 54 8 -12 -20 -29 -36 -57 -37 -64 0 -6 -3 -24 -5
-41 -6 -37 -2 -32 33 33 66 122 268 358 373 434 47 35 30 47 -26 19 -26 -12
-49 -20 -51 -17 -7 7 41 36 104 62 32 13 57 28 56 33 -1 5 16 17 39 26 31 12
43 13 49 4 4 -7 17 -9 29 -6 18 5 21 2 17 -14 -7 -24 -1 -24 112 6 51 14 111
26 133 27 29 1 35 4 24 10 -9 5 -14 13 -11 19 4 5 -9 9 -27 9 -18 0 -57 7 -87
15 -30 8 -76 15 -102 16 -52 3 -67 21 -43 54 34 46 9 41 -39 -8 -62 -64 -148
-121 -196 -131 -40 -7 -40 -8 30 45 65 48 186 182 170 187 -6 2 -34 -15 -61
-38 -28 -23 -50 -40 -50 -37 0 2 12 31 26 62 38 86 35 142 -15 330 -23 88 -46
176 -50 195 -13 60 -77 175 -95 172 -12 -2 -24 13 -39 48 -29 66 -42 55 -14
-12 19 -47 19 -51 4 -63 -9 -6 -13 -16 -8 -21 4 -5 22 -44 40 -86 49 -121 81
-267 88 -408 6 -121 5 -127 -20 -176 -14 -29 -42 -69 -62 -89 -19 -21 -35 -42
-35 -46 0 -5 -4 -10 -10 -10 -22 -3 -26 -5 -47 -24 -13 -11 -23 -24 -23 -31 0
-12 -98 -79 -106 -72 -7 7 58 74 79 81 14 5 16 11 7 27 -6 11 -14 20 -18 20
-4 0 -8 9 -8 19 0 11 4 17 8 15 4 -3 8 2 8 11 0 11 -5 15 -16 11 -8 -3 -12 -2
-9 4 3 6 12 10 20 10 7 0 23 26 35 57 12 32 26 63 32 70 6 7 8 23 5 35 -4 12
-1 28 4 35 8 9 4 19 -15 36 -14 13 -26 30 -26 38 0 8 6 5 15 -7 8 -10 15 -14
15 -9 0 6 5 48 10 95 7 66 6 119 -6 225 -18 160 -19 198 -4 203 19 7 10 20
-10 15 -11 -3 -20 0 -20 6 0 6 -11 17 -25 23 -16 7 -23 17 -20 27 4 13 -4 16
-43 16 -35 0 -53 6 -70 23 -31 31 -28 46 6 28 15 -8 57 -17 95 -21 60 -7 67
-5 67 10 0 12 6 16 20 12 15 -4 20 0 20 14 0 10 6 20 13 20 56 6 67 4 73 -15
6 -19 7 -19 19 -2 13 17 14 17 24 -1 5 -10 19 -34 30 -53 12 -19 32 -59 45
-87 14 -29 29 -53 34 -53 21 0 55 -100 73 -215 12 -85 19 -94 20 -29 3 84 -2
115 -22 135 -23 23 -18 39 31 99 20 25 49 66 64 93 24 41 25 46 9 41 -10 -3
-46 -36 -80 -72 l-62 -66 -6 29 c-3 17 -13 46 -22 65 -41 91 -70 179 -62 192
12 18 11 30 -2 22 -8 -4 -8 -1 -1 12 5 11 10 62 11 115 l2 96 -59 61 c-32 33
-65 62 -73 63 -22 5 -72 -26 -97 -61 -13 -17 -26 -29 -29 -26 -4 3 1 14 10 24
32 35 69 134 75 197 4 55 2 65 -17 84 -19 19 -32 22 -82 20 -41 -2 -63 2 -69
10 -4 7 -25 14 -47 15 -28 2 -48 10 -69 30 -16 15 -43 34 -61 42 -34 15 -135
18 -168 5 -11 -5 -27 -5 -35 -1 -68 32 -153 75 -190 96 -25 13 -58 24 -74 24
-16 0 -43 10 -60 23 -17 13 -56 38 -87 55 -90 51 -627 262 -667 262 -6 0 -13
-3 -15 -7z m41 -170 c-16 -2 -40 -2 -55 0 -16 2 -3 4 27 4 30 0 43 -2 28 -4z
m-158 -13 c0 -5 -4 -10 -9 -10 -6 0 -13 5 -16 10 -3 6 1 10 9 10 9 0 16 -4 16
-10z m-85 -11 c-29 -4 2 -5 75 -2 69 3 122 2 119 -1 -3 -3 -73 -10 -155 -16
-82 -6 -228 -19 -324 -30 -96 -11 -188 -21 -205 -22 -16 -1 -34 -5 -40 -9 -13
-8 -85 -22 -85 -15 0 10 108 35 193 46 48 6 100 15 115 21 41 16 207 37 287
36 70 0 70 0 20 -8z m258 4 c-7 -2 -19 -2 -25 0 -7 3 -2 5 12 5 14 0 19 -2 13
-5z m300 -30 c-7 -2 -19 -2 -25 0 -7 3 -2 5 12 5 14 0 19 -2 13 -5z m247 -54
c19 -10 -68 1 -95 12 -12 5 -1 6 30 3 28 -4 57 -10 65 -15z m93 -34 c20 -14
37 -28 37 -30 0 -6 -37 14 -60 31 -8 7 -24 14 -35 17 -20 5 -20 5 0 6 11 0 37
-10 58 -24z m-250 -32 c-7 -2 -21 -2 -30 0 -10 3 -4 5 12 5 17 0 24 -2 18 -5z
m307 -28 c-13 -14 -26 -23 -28 -20 -7 7 29 45 41 45 6 0 0 -11 -13 -25z m-721
-87 c44 -178 51 -214 70 -368 19 -154 19 -156 -1 -240 -29 -124 -60 -219 -75
-231 -7 -6 -19 -9 -27 -6 -9 4 -17 -2 -21 -14 -4 -10 -11 -19 -16 -19 -14 0
-39 26 -39 40 0 6 -7 18 -15 26 -13 13 -17 11 -36 -18 -18 -28 -20 -29 -14 -8
55 206 65 266 34 204 -7 -16 -36 -62 -64 -101 l-49 -72 -79 4 c-84 4 -115 -5
-157 -42 -13 -12 -27 -20 -30 -16 -3 3 1 8 8 10 6 3 12 9 12 15 0 6 -8 7 -17
3 -11 -4 -7 5 11 24 25 26 27 31 12 31 -19 0 -19 22 0 75 5 17 4 17 -11 -3
-13 -18 -20 -21 -31 -11 -11 9 -14 8 -14 -5 0 -9 -7 -16 -16 -16 -11 0 -14 6
-8 23 6 18 2 17 -20 -9 -14 -18 -26 -37 -26 -43 0 -6 -4 -11 -10 -11 -5 0 -10
-6 -10 -14 0 -7 -8 -20 -17 -27 -14 -12 -16 -12 -9 1 4 8 -5 2 -20 -15 -25
-28 -27 -28 -21 -7 4 18 2 22 -9 18 -8 -3 -13 -2 -10 2 3 5 -4 16 -15 25 -16
14 -19 14 -19 2 0 -28 -30 -16 -31 13 0 26 -1 26 -9 5 -5 -13 -16 -23 -24 -23
-17 0 -39 34 -29 44 3 3 21 39 38 78 36 84 201 381 284 511 70 111 84 137 78
144 -3 3 -22 -18 -42 -46 -20 -28 -40 -49 -45 -46 -4 3 -11 -2 -14 -11 -3 -9
-2 -12 5 -8 13 8 -50 -82 -108 -154 l-43 -52 7 45 c4 33 2 45 -7 45 -19 0 -3
48 35 106 38 56 74 92 62 62 -8 -23 -5 -23 25 5 25 22 72 93 74 112 1 6 2 16
3 23 1 7 16 12 41 12 45 0 51 -14 24 -55 -17 -27 -11 -33 11 -12 8 6 22 18 30
26 9 7 14 19 11 26 -6 16 44 25 148 25 59 0 77 -3 73 -12 -3 -7 -24 -58 -47
-113 -23 -55 -73 -175 -111 -268 -39 -92 -67 -172 -63 -179 4 -6 3 -8 -4 -4
-6 3 -14 1 -18 -5 -4 -8 -3 -9 4 -5 8 4 12 0 12 -11 1 -16 76 121 145 262 13
28 43 114 67 192 l43 142 35 4 c81 9 74 15 99 -85z m236 76 c8 -3 15 -12 15
-18 0 -21 47 -59 62 -50 7 4 10 3 5 -1 -4 -5 12 -29 36 -54 29 -30 61 -81 91
-147 25 -55 46 -104 46 -109 0 -5 7 -16 15 -26 9 -9 18 -40 20 -69 5 -51 4
-52 -13 -36 -10 9 -22 16 -26 16 -14 0 -327 325 -378 393 -28 37 -54 67 -58
67 -4 0 -10 12 -13 26 l-5 27 94 -7 c51 -3 100 -9 109 -12z m455 -46 c0 -17
-2 -17 -22 -4 -13 7 -39 17 -59 20 -20 4 -44 15 -53 25 -15 17 -12 17 59 -2
59 -16 75 -24 75 -39z m-154 8 c34 -13 82 -35 108 -50 l46 -27 0 -70 c0 -77
16 -123 77 -218 38 -60 38 -60 156 -26 l58 16 30 -25 c16 -14 46 -28 67 -31
20 -3 52 -8 70 -11 18 -3 30 -9 27 -13 -3 -5 2 -12 11 -15 8 -3 13 -10 9 -15
-3 -5 0 -13 6 -17 8 -4 9 -3 5 4 -10 16 9 15 22 -1 15 -18 -18 -38 -48 -30
-16 4 -21 3 -16 -5 9 -16 59 -15 74 0 9 9 15 9 23 1 8 -8 4 -17 -12 -31 -12
-12 -26 -19 -31 -16 -4 3 -8 1 -8 -5 0 -5 8 -12 18 -15 9 -3 -5 -2 -33 1 -56
7 -92 6 -106 -3 -5 -3 -9 -45 -9 -95 0 -69 -3 -89 -14 -89 -19 0 -28 28 -16
50 15 29 12 57 -7 62 -19 5 -69 160 -58 178 9 15 35 12 35 -4 0 -21 13 -26 46
-17 l29 8 -45 22 c-25 13 -56 34 -71 47 l-25 24 -63 -21 c-36 -12 -60 -26 -58
-33 21 -54 107 -363 135 -486 41 -172 75 -465 88 -750 8 -195 -18 -526 -52
-659 -38 -146 -124 -345 -141 -327 -2 2 3 33 12 69 26 112 15 736 -16 922 -6
33 -14 96 -20 140 -12 107 -38 262 -48 289 -5 11 -11 44 -15 71 -4 28 -16 79
-26 115 -10 36 -28 117 -41 180 -19 98 -43 183 -91 313 -6 15 -17 27 -25 27
-8 0 -11 5 -8 10 4 6 -1 23 -10 37 -10 14 -23 55 -31 90 -7 35 -20 76 -28 91
-33 62 -47 98 -42 114 2 10 1 16 -4 13 -4 -2 -14 24 -23 58 -24 97 -56 175
-75 181 -9 3 10 3 43 0 33 -4 87 -16 121 -28z m322 -46 c37 -23 41 -35 12 -43
-15 -4 -19 0 -17 15 1 12 -4 23 -11 25 -7 3 -12 1 -11 -4 4 -20 -2 -23 -17 -9
-14 15 -12 36 4 36 4 0 22 -9 40 -20z m192 -15 c0 -10 -16 -4 -40 16 l-25 20
33 -16 c17 -8 32 -18 32 -20z m98 -4 c8 -4 13 -11 13 -15 0 -3 2 -13 6 -22 7
-20 -42 -70 -77 -79 -21 -5 -28 0 -43 24 -17 29 -17 31 3 51 11 11 24 18 29
16 5 -3 16 3 26 14 20 22 24 23 43 11z m92 -11 c8 -5 11 -10 5 -10 -5 0 -17 5
-25 10 -8 5 -10 10 -5 10 6 0 17 -5 25 -10z m-1120 -43 c0 -17 219 -273 231
-270 5 2 8 0 7 -5 -1 -4 30 -39 69 -78 73 -73 95 -111 73 -124 -8 -5 6 -31 44
-81 30 -41 63 -90 72 -109 9 -19 23 -46 30 -60 13 -27 66 -241 61 -246 -8 -9
-131 104 -207 190 -46 53 -86 96 -88 96 -3 0 -2 -10 1 -21 4 -13 2 -18 -3 -13
-5 5 -10 20 -12 34 -2 14 -7 30 -11 37 -4 6 -3 14 3 18 17 10 12 18 -39 72
-47 50 -57 66 -66 113 -2 12 -9 28 -15 35 -6 7 -37 76 -69 154 -33 78 -72 158
-87 178 -34 45 -41 88 -14 90 11 1 20 -4 20 -10z m687 -65 c15 -15 18 -36 4
-28 -5 4 -11 1 -13 -5 -6 -17 -35 0 -42 24 -7 25 25 59 33 35 2 -7 10 -19 18
-26z m761 -28 c2 -16 -2 -46 -8 -68 l-12 -39 -29 46 c-16 26 -29 51 -29 57 0
5 -4 10 -10 10 -5 0 -10 5 -10 11 0 6 9 8 20 4 11 -3 28 -2 37 4 26 15 38 8
41 -25z m-2584 -9 c-4 -8 -11 -15 -16 -15 -6 0 -5 6 2 15 7 8 14 15 16 15 2 0
1 -7 -2 -15z m2076 -9 c0 -2 -11 -6 -25 -8 -13 -3 -22 -1 -19 3 5 9 44 13 44
5z m320 -6 c0 -5 -4 -10 -10 -10 -5 0 -10 5 -10 10 0 6 5 10 10 10 6 0 10 -4
10 -10z m-1240 -62 c12 -26 16 -44 10 -46 -18 -6 -11 -31 30 -110 21 -42 60
-120 85 -172 26 -52 56 -108 68 -125 l20 -30 -32 30 c-19 17 -50 51 -70 77
-20 25 -56 72 -80 103 -39 49 -47 68 -57 133 -17 100 -17 125 -2 116 8 -5 9 3
5 29 -3 21 -4 37 -2 37 3 0 14 -19 25 -42z m-1347 25 c-7 -2 -19 -2 -25 0 -7
3 -2 5 12 5 14 0 19 -2 13 -5z m117 -203 c13 -8 13 -10 -1 -10 -18 0 -29 -28
-29 -78 0 -30 -16 -78 -56 -167 -17 -40 -21 -25 -29 119 l-7 119 31 -5 c21 -3
37 1 49 13 20 21 23 22 42 9z m145 -61 c26 -12 67 -24 91 -28 l44 -6 -16 -30
c-8 -16 -29 -61 -45 -100 -29 -71 -78 -139 -86 -119 -2 6 -14 9 -28 7 -13 -3
-46 3 -74 12 -43 14 -51 21 -51 41 0 13 5 24 10 24 6 0 10 9 10 21 0 11 13 48
29 82 15 34 33 74 39 90 14 33 16 33 77 6z m1166 -129 c36 -47 108 -131 159
-188 51 -56 91 -104 89 -106 -2 -1 -45 -25 -96 -52 -51 -26 -90 -50 -88 -52 2
-3 50 18 105 45 56 27 104 45 107 40 3 -4 12 -6 20 -3 8 3 12 2 9 -3 -4 -6
116 -118 176 -163 20 -15 48 -88 48 -124 0 -23 -2 -24 -84 -24 -160 0 -344
-60 -456 -148 -79 -63 -111 -96 -130 -135 -11 -21 -14 -35 -7 -30 77 56 181
101 210 90 9 -3 24 -25 35 -49 11 -24 38 -61 61 -83 47 -45 49 -53 21 -88 -11
-14 -20 -27 -20 -30 0 -3 24 1 53 9 28 7 61 14 72 14 30 0 193 88 205 111 9
16 7 19 -15 19 -30 0 -31 9 -5 86 11 32 20 69 20 82 0 17 6 22 25 22 14 0 28
1 32 3 14 4 51 -304 68 -563 6 -94 6 -96 -28 -163 -28 -55 -57 -88 -150 -175
-219 -204 -292 -263 -379 -308 -55 -28 -132 -32 -158 -9 -10 9 -37 19 -61 23
-35 6 -47 13 -58 37 -23 47 -40 56 -99 51 -59 -5 -123 20 -296 115 -243 134
-290 178 -438 404 -29 44 -81 109 -116 144 -34 35 -61 64 -60 65 9 6 177 36
198 36 26 0 55 -33 45 -50 -4 -6 -2 -10 4 -10 5 0 16 -3 24 -6 9 -3 16 3 20
15 5 22 27 29 27 10 0 -5 5 -7 10 -4 6 4 10 -5 10 -20 0 -24 -3 -26 -25 -21
-30 8 -32 -4 -5 -29 11 -10 22 -26 25 -36 4 -11 13 -19 20 -19 20 0 30 -21 14
-31 -8 -5 -30 -9 -49 -10 l-35 -1 40 -13 c81 -27 214 5 235 55 7 17 18 30 24
30 7 0 7 3 1 8 -6 4 -16 27 -23 52 -7 25 -15 53 -19 63 -4 12 0 17 13 17 37 0
-47 70 -105 87 l-54 15 24 19 c13 10 30 19 37 19 6 0 12 7 12 15 0 8 24 38 53
68 28 29 99 106 157 170 57 64 108 117 112 117 9 0 141 157 202 240 91 124
116 198 132 395 7 86 8 88 23 65 9 -13 46 -63 82 -110z m1145 108 c40 -14 55
-62 27 -84 -27 -20 -33 -17 -27 16 5 25 2 31 -20 41 -14 7 -26 18 -26 26 0 16
5 16 46 1z m-399 -30 c-3 -8 -6 -5 -6 6 -1 11 2 17 5 13 3 -3 4 -12 1 -19z
m743 2 c0 -5 -2 -10 -4 -10 -3 0 -8 5 -11 10 -3 6 -1 10 4 10 6 0 11 -4 11
-10z m-3465 -137 c11 -7 15 -13 9 -13 -6 0 -23 9 -37 20 -14 11 -30 20 -36 20
-6 0 -11 5 -11 11 0 10 17 2 75 -38z m2757 -18 c3 -14 1 -25 -3 -25 -5 0 -9
11 -9 25 0 14 2 25 4 25 2 0 6 -11 8 -25z m5 -67 c-3 -7 -5 -2 -5 12 0 14 2
19 5 13 2 -7 2 -19 0 -25z m-1880 -63 c-11 -24 -22 -43 -23 -42 -6 6 31 95 37
91 4 -2 -3 -24 -14 -49z m-250 13 c-3 -7 -5 -2 -5 12 0 14 2 19 5 13 2 -7 2
-19 0 -25z m2199 14 c-8 -13 11 -35 23 -28 6 4 11 12 11 17 0 6 -5 7 -12 3 -7
-5 -8 -3 -3 6 6 9 21 -1 56 -39 27 -28 53 -51 57 -51 5 0 17 9 27 20 10 11 22
20 27 20 5 0 24 12 43 26 29 21 33 23 31 7 -2 -10 -11 -17 -20 -16 -11 0 -15
-4 -12 -12 3 -8 0 -12 -7 -9 -23 8 -34 -39 -25 -112 14 -124 19 -345 8 -385
-10 -37 -13 -39 -52 -39 -35 0 -47 -6 -86 -45 -44 -45 -45 -45 -38 -96 4 -28
16 -74 26 -102 11 -28 19 -51 17 -51 -1 -1 -12 -7 -24 -13 -27 -15 -29 -11
-32 52 -1 28 -11 136 -22 240 -10 105 -19 206 -18 225 1 68 20 -8 29 -119 9
-100 19 -141 21 -90 2 31 2 20 -6 119 -4 60 -3 81 4 70 10 -13 11 -13 12 0 0
8 5 4 9 -10 6 -19 8 -12 9 30 0 39 -2 51 -9 40 -8 -12 -10 -10 -10 8 0 13 4
20 10 17 6 -3 10 2 10 12 0 12 -8 19 -22 20 -27 2 -34 15 -42 74 -4 26 -11 51
-16 54 -8 5 -6 -34 5 -87 2 -10 0 -20 -5 -23 -8 -5 -30 102 -30 148 0 28 14
36 24 15 3 -7 3 -1 -1 15 -3 15 0 34 7 42 6 8 9 23 5 35 -5 14 -2 20 10 20 9
0 14 -4 11 -8z m-1024 -34 c-8 -8 -9 -4 -5 13 4 13 8 18 11 10 2 -7 -1 -18 -6
-23z m403 2 c10 -11 14 -20 9 -20 -5 0 -15 9 -22 20 -7 11 -11 20 -9 20 2 0
12 -9 22 -20z m572 -32 c-3 -8 -6 -5 -6 6 -1 11 2 17 5 13 3 -3 4 -12 1 -19z
m-2077 -8 c0 -5 6 -7 14 -4 9 4 15 -8 21 -38 4 -27 9 -37 13 -28 4 8 13 16 21
18 10 2 12 -4 7 -25 -9 -34 -135 -304 -150 -320 -11 -12 -14 120 -8 325 l2 82
40 0 c22 0 40 -4 40 -10z m236 -13 c8 3 14 -1 14 -11 0 -20 9 -20 32 1 12 10
18 12 18 4 0 -7 5 -9 10 -6 15 10 12 -3 -15 -57 -14 -28 -24 -53 -21 -55 3 -3
14 13 25 35 36 71 39 54 3 -21 -63 -133 -216 -367 -239 -367 -7 0 -10 -7 -7
-15 10 -25 -72 -145 -99 -145 -15 0 -3 101 16 139 9 19 17 42 17 51 0 36 105
348 130 388 9 14 10 12 6 -10 -5 -22 -3 -26 9 -22 8 4 15 11 15 18 0 7 3 7 8
-1 6 -9 13 -4 26 17 9 17 21 30 26 30 4 0 6 10 4 23 -2 12 -2 17 2 10 3 -7 12
-9 20 -6z m545 -99 c-21 -45 -53 -116 -71 -157 -29 -69 -85 -162 -100 -169 -4
-1 -31 -34 -61 -72 -42 -55 -58 -69 -74 -65 -11 3 -67 17 -125 32 -58 15 -107
28 -109 30 -4 3 46 51 91 88 61 50 170 145 241 212 42 40 101 89 130 107 28
19 65 48 82 65 16 18 31 28 33 22 2 -5 -15 -47 -37 -93z m-228 64 c9 -1 17 -9
17 -17 0 -8 5 -15 10 -15 6 0 10 -9 10 -20 0 -20 18 -26 36 -12 30 23 -181
-181 -226 -219 -47 -40 -212 -149 -226 -149 -10 0 60 112 163 262 59 86 113
155 120 153 6 -2 13 2 16 8 4 11 25 13 80 9z m-153 -20 c0 -11 -121 -184 -126
-180 -7 8 88 178 96 173 5 -3 11 -1 15 5 7 12 15 13 15 2z m2092 -43 c36 0 37
-1 48 -52 6 -29 16 -86 23 -127 l12 -75 6 50 c4 28 5 -4 2 -70 -6 -175 -7
-181 -44 -189 -62 -12 -66 -10 -97 67 -41 100 -50 153 -51 294 l-1 122 32 -10
c18 -6 50 -10 70 -10z m226 -11 c11 -18 23 -44 26 -58 4 -14 -7 -1 -23 29 -17
30 -31 56 -31 58 0 10 11 -1 28 -29z m-1798 7 c0 -18 31 -20 48 -3 20 20 14 0
-13 -43 -26 -40 -112 -133 -130 -140 -5 -2 -46 -49 -90 -104 -44 -55 -126
-146 -182 -203 -57 -57 -103 -107 -103 -111 0 -4 -11 -13 -25 -19 -14 -6 -25
-9 -25 -6 0 17 102 154 143 193 91 85 128 126 147 166 18 37 76 135 125 213
11 18 27 32 36 32 8 0 24 9 35 19 23 24 34 26 34 6z m1460 -25 c0 -13 -1 -13
-10 0 -5 8 -10 22 -10 30 0 13 1 13 10 0 5 -8 10 -22 10 -30z m-2597 -85 c-5
-110 -10 -138 -26 -132 -16 5 -16 33 1 30 7 -2 12 7 11 25 -1 16 -3 20 -6 10
-5 -22 -12 -22 -37 -3 -11 8 -30 15 -43 15 -18 0 -23 -5 -23 -27 0 -20 -3 -24
-11 -16 -8 8 -8 31 2 85 7 40 12 80 11 88 0 12 13 15 63 15 l62 0 -4 -90z m84
-22 c-3 -10 -5 -4 -5 12 0 17 2 24 5 18 2 -7 2 -21 0 -30z m-219 -154 c-1 -15
-6 -25 -10 -23 -14 9 -9 -9 9 -30 17 -21 17 -21 -2 -3 -22 20 -28 84 -7 84 7
0 11 -11 10 -28z m29 -4 c-4 -31 -15 -43 -12 -13 4 35 5 38 10 38 3 0 4 -11 2
-25z m158 -85 c-1 -36 4 -114 11 -175 7 -60 18 -157 24 -215 23 -214 56 -388
110 -573 28 -98 80 -237 98 -261 5 -6 13 -24 20 -39 l12 -28 -34 26 c-60 45
-102 107 -150 217 -25 58 -46 109 -46 114 0 21 58 -86 64 -119 4 -20 11 -39
16 -42 15 -9 43 23 33 37 -4 7 -8 18 -9 23 0 6 -2 15 -2 22 -1 6 -11 9 -21 6
-28 -7 -48 32 -26 53 18 18 19 31 4 36 -5 2 -11 10 -13 18 -1 8 -8 29 -15 45
-44 102 -55 125 -62 125 -5 0 -6 8 -3 18 3 9 -1 6 -9 -7 -13 -23 -15 -20 -26
53 -12 84 -15 266 -5 340 5 31 11 46 22 46 10 0 13 7 8 23 -9 34 -17 375 -8
347 5 -14 8 -54 7 -90z m-627 -45 c-3 -3 -18 11 -33 32 l-28 38 34 -32 c18
-18 30 -35 27 -38z m61 -63 c-5 -13 -7 -28 -3 -33 3 -5 3 -9 0 -9 -17 0 -25
41 -14 71 10 29 12 30 18 13 4 -10 3 -30 -1 -42z m1036 38 c60 -10 145 -39
145 -50 0 -4 -11 -19 -25 -35 -26 -27 -27 -27 -88 -16 -34 6 -85 13 -113 14
-29 1 -50 5 -47 9 2 4 -10 6 -26 4 -17 -2 -28 1 -25 5 3 5 0 9 -5 9 -6 0 -11
-6 -11 -14 0 -8 -6 -16 -12 -19 -7 -2 14 -5 47 -5 52 -1 143 -13 223 -28 23
-5 23 -5 5 -22 -11 -9 -12 -12 -3 -7 12 8 13 7 3 -5 -15 -20 -53 -23 -160 -10
-48 5 -90 6 -93 2 -6 -9 -72 -33 -77 -28 -2 2 3 11 12 19 8 9 15 25 15 37 0
69 106 168 165 154 11 -3 43 -9 70 -14z m1415 -20 c0 -5 -4 -10 -10 -10 -5 0
-10 5 -10 10 0 6 5 10 10 10 6 0 10 -4 10 -10z m-38 -52 c-3 -11 -13 -29 -24
-40 -10 -10 -18 -25 -18 -33 0 -16 -95 -75 -120 -75 -12 0 -13 2 -1 9 21 13 4
31 -30 31 -17 0 -29 5 -29 13 1 19 26 47 43 47 9 0 40 9 69 21 28 11 62 18 74
15 16 -4 23 -1 27 14 3 11 7 20 10 20 3 0 3 -10 -1 -22z m-247 -5 c17 -24 8
-43 -21 -43 -27 0 -30 11 -12 40 16 24 18 24 33 3z m-2120 -53 c3 -5 2 -10 -4
-10 -5 0 -13 5 -16 10 -3 6 -2 10 4 10 5 0 13 -4 16 -10z m2949 -23 c29 -38
33 -57 11 -57 -23 0 -57 40 -52 60 3 11 0 21 -7 24 -6 2 -3 5 6 5 9 1 28 -14
42 -32z m-2877 -3 c-3 -3 -12 -4 -19 -1 -8 3 -5 6 6 6 11 1 17 -2 13 -5z
m2133 -38 c0 -2 -7 -7 -16 -10 -8 -3 -12 -2 -9 4 6 10 25 14 25 6z m1044 -181
c3 -8 1 -15 -4 -15 -6 0 -10 7 -10 15 0 8 2 15 4 15 2 0 6 -7 10 -15z m-2119
-15 c8 -13 55 -13 55 1 0 9 37 4 49 -7 8 -7 -34 -33 -46 -29 -7 2 -14 1 -17
-4 -3 -4 -26 -8 -53 -9 -31 -2 -43 1 -34 7 11 7 11 9 0 14 -11 3 -9 9 6 21 24
18 32 20 40 6z m115 -40 c-12 -17 -26 -28 -31 -24 -6 3 -16 1 -23 -5 -10 -8
-20 -8 -37 -1 -24 10 -24 10 2 5 17 -3 31 1 39 10 7 8 16 12 21 9 5 -3 17 8
27 25 9 17 18 26 20 21 2 -5 -6 -23 -18 -40z m1940 46 c0 -2 -7 -6 -15 -10 -8
-3 -15 -1 -15 4 0 6 7 10 15 10 8 0 15 -2 15 -4z m190 -56 c-19 -16 -30 -30
-24 -30 5 0 14 3 20 8 5 4 -4 -6 -21 -21 -39 -37 -83 -60 -97 -51 -6 4 -8 3
-5 -3 3 -5 -14 -32 -39 -59 -37 -40 -40 -42 -18 -11 32 45 27 55 -18 33 -32
-16 -32 -16 -15 1 17 17 236 161 247 162 3 0 -11 -13 -30 -29z m-455 -43 c-1
-41 -49 -165 -76 -197 l-21 -25 6 25 c3 14 6 72 6 130 l0 105 43 -3 c42 -4 43
-5 42 -35z m-2620 -103 c8 -66 13 -71 63 -65 7 1 15 -6 18 -16 3 -10 14 -38
24 -63 15 -35 20 -80 24 -210 4 -138 10 -186 35 -294 17 -72 31 -146 30 -165
l-1 -36 -10 35 c-18 66 -61 294 -75 400 -6 41 -7 43 -14 18 -4 -16 -5 -52 -3
-80 4 -51 4 -52 -11 -28 -12 20 -15 21 -11 5 3 -11 8 -38 12 -60 4 -22 17 -67
29 -100 28 -75 40 -127 25 -105 -17 25 -108 310 -129 405 -25 114 -40 255 -40
370 0 79 2 88 14 72 7 -11 17 -48 20 -83z m2710 69 c-2 -10 -7 -35 -10 -55 -6
-42 -51 -102 -67 -91 -6 3 -8 1 -4 -5 5 -9 -29 -82 -40 -82 -7 0 48 136 65
160 10 14 25 40 35 58 18 36 26 41 21 15z m-2602 -128 c6 -46 5 -44 -13 20
-10 39 -19 79 -18 90 0 30 24 -53 31 -110z m2952 99 c-11 -9 -29 -20 -40 -26
-17 -9 -16 -6 4 16 14 14 32 26 40 26 13 -1 12 -4 -4 -16z m-71 -99 c-46 -55
-66 -66 -45 -27 9 18 79 82 89 82 2 0 -18 -25 -44 -55z m-171 20 c-16 -22 -43
-41 -43 -30 0 5 53 55 58 55 2 0 -5 -11 -15 -25z m47 -28 c0 -2 -15 -16 -32
-33 -27 -24 -29 -25 -13 -4 24 30 45 47 45 37z m42 -85 c-23 -32 -52 -58 -52
-48 0 11 63 86 68 82 2 -3 -5 -18 -16 -34z m-392 -39 c-11 -17 -11 -17 -6 0 3
10 6 24 7 30 0 9 2 9 5 0 3 -7 0 -20 -6 -30z m-241 -5 c0 -20 -1 -20 -8 -5 -7
19 -9 18 -66 -52 -18 -22 -19 -24 -2 -18 15 6 17 3 12 -12 -7 -23 14 -39 26
-20 8 12 11 12 19 -1 10 -13 11 -13 9 0 -3 30 3 85 8 67 3 -10 -3 -90 -12
-177 -11 -114 -13 -165 -6 -179 6 -11 11 -37 11 -58 l0 -38 -49 0 c-41 0 -47
-2 -38 -14 10 -12 9 -12 -10 -2 -15 7 -23 8 -23 1 0 -5 6 -10 13 -11 6 0 1 -6
-12 -12 -19 -9 -25 -9 -29 1 -3 10 -7 10 -18 1 -12 -10 -18 -8 -29 7 -8 10
-12 25 -10 32 3 7 0 10 -5 7 -5 -3 -24 23 -41 57 -27 53 -28 60 -10 44 11 -11
21 -15 21 -11 0 4 8 -1 18 -11 25 -29 49 -19 54 21 2 18 1 32 -2 30 -3 -2 -12
0 -20 5 -12 7 -10 13 10 30 15 13 24 30 22 43 -2 13 0 17 5 11 11 -14 97 -19
88 -4 -3 5 -17 7 -31 4 -18 -5 -24 -2 -24 11 0 12 5 15 16 11 20 -8 53 30 54
61 0 32 -18 75 -30 68 -6 -4 -7 1 -3 12 4 13 -4 9 -27 -12 l-33 -30 23 35 c36
54 104 128 118 129 6 1 12 -9 11 -21z m-2001 -48 c-7 -10 -14 -17 -17 -15 -4
4 18 35 25 35 2 0 -1 -9 -8 -20z m22 -10 c0 -5 -5 -10 -11 -10 -5 0 -7 5 -4
10 3 6 8 10 11 10 2 0 4 -4 4 -10z m185 -150 c43 -74 102 -172 131 -217 34
-53 51 -89 48 -100 -4 -13 -3 -14 3 -5 7 9 15 4 32 -19 13 -17 20 -33 18 -36
-3 -2 -10 5 -17 16 -6 12 -14 19 -19 17 -14 -9 -92 51 -119 90 -33 49 -117
239 -138 313 -9 31 -19 63 -22 71 -11 30 7 2 83 -130z m1751 114 c-4 -9 -9
-15 -11 -12 -3 3 -3 13 1 22 4 9 9 15 11 12 3 -3 3 -13 -1 -22z m-2066 -23 c0
-12 2 -13 8 -3 6 9 14 0 25 -28 8 -22 11 -37 5 -34 -13 8 -2 -13 19 -36 7 -8
32 -44 55 -79 86 -132 307 -311 402 -326 12 -2 53 -15 91 -29 39 -13 83 -27
99 -31 15 -3 26 -8 24 -11 -3 -2 -47 7 -99 21 -52 14 -104 28 -115 29 -60 10
-334 192 -334 221 0 7 -6 18 -14 24 -11 9 -15 4 -19 -26 -9 -52 -50 -156 -64
-160 -6 -2 -16 17 -22 44 -44 192 -90 421 -91 452 0 11 3 11 15 1 8 -7 15 -20
15 -29z m142 17 c-7 -7 -12 -8 -12 -2 0 14 12 26 19 19 2 -3 -1 -11 -7 -17z
m217 -78 c0 -9 -6 -4 -14 10 -8 14 -14 32 -14 40 0 9 6 4 14 -10 8 -14 14 -32
14 -40z m1581 0 c0 -5 -5 -10 -11 -10 -5 0 -7 5 -4 10 3 6 8 10 11 10 2 0 4
-4 4 -10z m-1540 -64 c0 -6 -7 -2 -15 8 -8 11 -15 25 -15 30 0 6 7 2 15 -8 8
-11 15 -25 15 -30z m223 27 c-7 -2 -19 -2 -25 0 -7 3 -2 5 12 5 14 0 19 -2 13
-5z m-90 -10 c-7 -2 -21 -2 -30 0 -10 3 -4 5 12 5 17 0 24 -2 18 -5z m1447 -2
c0 -6 -4 -13 -10 -16 -5 -3 -10 1 -10 9 0 9 5 16 10 16 6 0 10 -4 10 -9z
m-1435 -50 c18 -7 18 -8 1 -18 -13 -7 -17 -17 -13 -32 3 -11 1 -21 -4 -21 -5
0 -4 -11 1 -25 5 -14 9 -29 7 -33 -2 -7 12 -27 81 -118 23 -31 42 -61 42 -67
0 -7 -3 -7 -9 -1 -11 12 -156 204 -205 272 l-38 52 59 -1 c32 0 67 -4 78 -8z
m213 2 c-10 -2 -26 -2 -35 0 -10 3 -2 5 17 5 19 0 27 -2 18 -5z m61 -80 c-8
-10 -20 -22 -27 -26 -7 -4 -19 -23 -26 -42 -13 -31 -19 -34 -72 -41 -61 -7
-104 2 -112 25 -3 8 1 12 9 9 8 -3 19 1 24 7 6 7 28 15 50 19 27 4 35 2 25 -4
-19 -13 -8 -13 24 0 17 6 26 6 26 0 0 -6 5 -10 10 -10 6 0 10 5 10 11 0 19 41
69 57 69 13 0 14 -2 2 -17z m289 -34 c-3 -8 -7 -3 -11 10 -4 17 -3 21 5 13 5
-5 8 -16 6 -23z m1287 -29 c2 0 2 6 -1 14 -3 8 0 17 7 22 14 8 9 -29 -11 -81
-16 -42 -30 -15 -29 55 l1 55 14 -32 c8 -18 16 -33 19 -33z m-1548 3 c-31 -31
-38 -13 -11 26 12 16 19 20 27 12 8 -8 4 -19 -16 -38z m240 22 c0 -8 -4 -12
-9 -9 -5 3 -6 10 -3 15 9 13 12 11 12 -6z m531 -12 c1 -16 3 -45 3 -65 1 -30
8 -44 35 -68 19 -16 34 -38 34 -49 0 -11 12 -29 26 -40 15 -12 23 -21 19 -21
-5 0 0 -9 10 -20 10 -11 26 -20 37 -20 10 0 27 -14 38 -32 19 -31 19 -32 -1
-56 -26 -34 -26 -107 0 -122 28 -14 114 -13 105 2 -4 7 -3 8 4 4 7 -4 17 -4
23 0 8 4 7 9 -2 15 -11 7 -11 9 1 8 26 0 117 -54 112 -67 -2 -6 2 -12 10 -12
7 0 26 23 42 50 17 27 53 72 81 100 l51 50 0 -63 c-1 -44 4 -71 17 -90 9 -14
17 -41 17 -59 0 -42 48 -143 87 -185 23 -25 28 -35 18 -43 -6 -5 -16 -6 -20
-2 -5 4 -5 2 -2 -4 7 -12 -81 -74 -104 -74 -12 0 -12 2 0 9 8 5 -21 7 -70 5
-105 -5 -149 -12 -149 -24 0 -6 -7 -10 -15 -10 -8 0 -15 5 -15 11 0 7 -19 9
-57 5 -32 -3 -69 -6 -83 -5 -14 0 -75 2 -136 4 -61 1 -121 8 -132 14 -26 14
-109 15 -117 1 -3 -5 -10 -10 -16 -10 -14 0 -10 139 6 185 l13 40 1 -37 c1
-20 5 -39 10 -43 5 -3 8 -17 5 -30 -3 -18 0 -25 11 -25 8 0 15 8 15 18 1 40
16 46 54 23 20 -13 36 -29 36 -38 0 -9 8 -13 23 -11 12 2 22 10 22 18 0 8 4
18 8 21 5 4 4 31 -2 60 -14 72 -34 282 -29 305 2 11 -4 26 -13 34 -22 20 -160
242 -154 248 2 2 20 -5 40 -17 20 -11 38 -21 41 -21 12 0 1 50 -16 70 -11 13
-20 27 -20 31 0 5 21 20 48 33 26 14 47 25 47 26 0 0 1 -12 3 -27z m162 -13
c11 -11 20 -29 20 -40 0 -16 -7 -20 -32 -20 -17 0 -39 -7 -48 -15 -14 -13 -19
-13 -38 1 -45 31 -15 94 45 94 20 0 41 -8 53 -20z m530 -21 c0 -11 -4 -18 -10
-14 -5 3 -7 12 -3 20 7 21 13 19 13 -6z m-1425 -19 c-10 -11 -23 -20 -28 -20
-6 0 0 11 13 25 27 29 42 25 15 -5z m1245 -30 c-16 -31 -23 -18 -8 15 7 15 14
23 16 17 2 -6 -2 -21 -8 -32z m-620 20 c0 -5 -4 -10 -9 -10 -6 0 -13 5 -16 10
-3 6 1 10 9 10 9 0 16 -4 16 -10z m800 -66 c0 -18 2 -39 5 -47 3 -7 -4 -25
-15 -38 -19 -22 -20 -22 -11 -2 6 12 11 34 10 50 0 26 -2 25 -19 -14 -16 -36
-24 -43 -48 -43 -58 0 -80 65 -36 106 22 19 37 24 71 22 41 -2 43 -3 43 -34z
m67 4 c-3 -7 -5 -2 -5 12 0 14 2 19 5 13 2 -7 2 -19 0 -25z m-583 -6 c-21 -21
-35 -59 -28 -77 5 -11 2 -13 -10 -9 -9 3 -16 14 -16 24 0 10 -7 23 -15 30 -13
10 -12 15 2 34 12 16 24 21 49 18 30 -4 32 -6 18 -20z m72 -77 c3 -14 1 -32
-6 -40 -6 -8 -9 -19 -5 -25 12 -19 -7 -10 -26 13 -21 26 -24 48 -7 65 19 19
37 14 44 -13z m-1652 -30 c4 -20 4 -39 1 -44 -3 -5 -1 -11 5 -13 5 -1 6 -9 1
-16 -11 -18 -41 -4 -41 19 0 12 -5 16 -15 13 -11 -5 -14 -1 -9 12 23 71 48 83
58 29z m1576 -15 c0 -5 -7 -7 -15 -4 -8 4 -15 8 -15 10 0 2 7 4 15 4 8 0 15
-4 15 -10z m397 -79 c-52 -50 -77 -80 -74 -91 2 -9 -3 -27 -12 -39 -16 -21
-17 -20 -16 37 0 44 6 65 22 86 12 15 27 39 34 54 11 25 16 27 68 27 l57 0
-79 -74z m112 40 c-9 -24 -14 -29 -24 -21 -10 9 -9 16 8 35 27 29 30 27 16
-14z m-208 6 c-10 -9 -11 -8 -5 6 3 10 9 15 12 12 3 -3 0 -11 -7 -18z m-1883
-127 c-21 -17 -22 -17 -43 14 -27 39 -13 50 31 24 l34 -20 -22 -18z m1690 13
c4 -27 -22 -53 -48 -46 -26 7 -25 21 3 48 26 27 41 26 45 -2z m-1778 -3 c0 -5
-5 -10 -11 -10 -5 0 -7 5 -4 10 3 6 8 10 11 10 2 0 4 -4 4 -10z m67 -56 c-3
-3 -12 -4 -19 -1 -8 3 -5 6 6 6 11 1 17 -2 13 -5z m-20 -46 c-3 -7 -5 -2 -5
12 0 14 2 19 5 13 2 -7 2 -19 0 -25z m1383 -163 c0 -5 -5 -3 -10 5 -5 8 -10
20 -10 25 0 6 5 3 10 -5 5 -8 10 -19 10 -25z m1120 16 c0 -6 -4 -13 -10 -16
-5 -3 -10 1 -10 9 0 9 5 16 10 16 6 0 10 -4 10 -9z m65 -10 c10 -18 -17 -23
-33 -7 -15 15 -15 16 5 16 12 0 24 -4 28 -9z m-1809 -100 c-4 -5 0 -12 6 -14
7 -3 1 -6 -14 -6 -20 -1 -26 3 -22 14 4 8 13 15 21 15 8 0 12 -4 9 -9z m59 -1
c13 -5 14 -9 5 -9 -8 0 -24 4 -35 9 -13 5 -14 9 -5 9 8 0 24 -4 35 -9z m52
-16 c-3 -3 -12 -4 -19 -1 -8 3 -5 6 6 6 11 1 17 -2 13 -5z m79 -19 c19 -14 19
-14 -1 -15 -17 0 -17 -2 -5 -10 18 -12 2 -12 -25 0 -11 5 -14 9 -7 9 18 1 15
19 -5 24 -15 4 -14 5 3 6 11 0 29 -6 40 -14z m2683 -23 c13 -44 2 -47 -32 -10
l-30 33 24 6 c29 7 28 8 38 -29z m-2860 12 c2 -2 -12 -4 -32 -4 -20 0 -37 4
-37 10 0 8 58 3 69 -6z m108 -21 c43 -9 83 -20 88 -26 6 -6 1 -7 -14 -2 -18 6
-22 4 -15 -6 6 -11 4 -11 -10 0 -13 11 -20 11 -29 2 -9 -9 -9 -14 1 -20 9 -5
5 -14 -15 -32 -29 -26 -69 -28 -59 -3 4 10 -3 14 -22 14 -16 0 -32 -4 -37 -9
-6 -5 -19 -5 -30 -1 -17 7 -16 9 10 11 l30 2 -35 7 -35 8 37 -1 c20 -1 40 2
44 6 4 4 2 7 -4 7 -6 0 -9 6 -6 13 3 10 -9 18 -38 25 -39 10 -40 11 -6 6 20
-2 39 0 43 6 8 13 11 13 102 -7z m1410 -11 c1 -14 -6 -17 -40 -14 -69 5 -74 8
-37 23 41 18 75 14 77 -9z m-1023 -38 c8 -3 12 -12 9 -20 -7 -19 16 -18 39 3
17 15 18 14 18 -19 0 -23 -7 -41 -21 -54 -22 -19 -22 -19 -10 3 7 14 8 24 1
28 -5 3 -10 -2 -10 -12 0 -15 -2 -16 -10 -3 -7 11 -10 11 -10 2 0 -8 -5 -10
-12 -6 -8 5 -9 2 -5 -9 12 -32 -1 -17 -21 23 l-19 40 23 -6 c26 -7 31 5 12 24
-13 13 -8 15 16 6z m116 -14 c-11 -11 -22 -20 -25 -20 -3 0 -5 9 -5 20 0 15 7
20 25 20 l25 0 -20 -20z m590 -4 c-63 -22 -90 -25 -60 -6 13 9 13 10 0 11 -15
2 69 15 105 17 11 0 -9 -10 -45 -22z m-128 -15 l31 -29 -29 -36 c-18 -23 -30
-31 -32 -22 -2 9 -15 13 -34 12 -18 0 -32 4 -34 12 -1 7 0 8 3 2 7 -15 29 -12
43 5 9 10 9 15 1 15 -6 0 -11 9 -11 19 0 11 -5 23 -12 27 -6 4 -8 3 -5 -4 5
-6 0 -8 -13 -5 -27 7 -25 11 13 22 46 13 45 14 79 -18z m-787 -1 c-4 -12 -2
-26 3 -33 16 -20 20 -77 5 -77 -13 0 -20 21 -25 82 -2 20 0 34 4 32 4 -3 8 0
8 5 0 6 3 11 6 11 3 0 2 -9 -1 -20z m508 3 c-7 -2 -19 -2 -25 0 -7 3 -2 5 12
5 14 0 19 -2 13 -5z m103 -1 c6 -4 15 -21 18 -39 l7 -32 -38 6 c-50 8 -59 17
-10 11 20 -2 37 -3 37 -2 0 21 -24 53 -42 57 -19 4 -20 4 -3 5 11 1 25 -2 31
-6z m741 -32 c15 -11 20 -20 12 -20 -16 0 -49 20 -34 20 6 0 3 5 -5 10 -8 5
-11 10 -7 10 5 0 20 -9 34 -20z m-1690 4 c-3 -3 -12 -4 -19 -1 -8 3 -5 6 6 6
11 1 17 -2 13 -5z m1643 -47 c0 -5 -4 -5 -10 -2 -5 3 -10 14 -10 23 0 15 2 15
10 2 5 -8 10 -19 10 -23z m-1670 5 c37 -8 39 -10 15 -11 -16 0 -52 6 -80 14
-38 11 -41 14 -15 10 19 -2 55 -8 80 -13z m1347 -28 c-3 -3 -12 -4 -19 -1 -8
3 -5 6 6 6 11 1 17 -2 13 -5z m356 -1 c-7 -2 -21 -2 -30 0 -10 3 -4 5 12 5 17
0 24 -2 18 -5z m75 -44 c-10 -7 -10 -9 0 -9 6 0 12 -7 12 -16 0 -13 3 -14 14
-4 8 6 25 10 38 8 16 -2 4 -9 -42 -25 -36 -12 -65 -27 -66 -35 0 -7 -4 -26 -9
-41 -4 -17 -3 -38 4 -53 16 -37 -11 -31 -67 13 -75 60 -80 70 -10 21 37 -26
54 -14 65 43 9 42 8 49 -6 50 -11 0 -8 3 7 9 32 13 27 20 -8 10 -16 -5 -32 -5
-35 0 -5 8 42 24 75 25 8 1 14 6 13 13 -2 6 4 9 13 5 13 -5 13 -7 2 -14z
m-410 2 c17 -10 -2 -26 -43 -35 l-30 -6 25 15 c15 9 19 14 10 15 -13 0 -13 1
0 10 18 12 21 12 38 1z m-1233 -71 c3 -5 2 -10 -4 -10 -5 0 -13 5 -16 10 -3 6
-2 10 4 10 5 0 13 -4 16 -10z m-23 -42 c-7 -7 -12 -8 -12 -2 0 14 12 26 19 19
2 -3 -1 -11 -7 -17z m1793 12 c3 -5 1 -10 -4 -10 -6 0 -11 5 -11 10 0 6 2 10
4 10 3 0 8 -4 11 -10z m-1820 -40 c-3 -5 -14 -10 -23 -9 -14 0 -13 2 3 9 27
11 27 11 20 0z m1615 6 c0 -11 -19 -15 -25 -6 -3 5 1 10 9 10 9 0 16 -2 16 -4z
m-1045 -32 c9 -15 12 -23 6 -20 -11 7 -35 46 -28 46 3 0 12 -12 22 -26z m-642
-11 c-7 -2 -19 -2 -25 0 -7 3 -2 5 12 5 14 0 19 -2 13 -5z"/>
<path d="M1803 4143 c15 -2 37 -2 50 0 12 2 0 4 -28 4 -27 0 -38 -2 -22 -4z"/>
<path d="M1718 4133 c6 -2 18 -2 25 0 6 3 1 5 -13 5 -14 0 -19 -2 -12 -5z"/>
<path d="M2900 3564 c1 -15 29 -48 36 -41 3 3 -3 16 -15 28 -12 13 -21 19 -21
13z"/>
<path d="M3267 3467 c3 -15 9 -30 14 -33 14 -8 10 20 -5 41 -13 18 -14 18 -9
-8z"/>
<path d="M2837 3394 c-4 -4 -7 -17 -6 -28 0 -20 1 -20 8 -1 5 12 8 -5 8 -44 0
-39 4 -66 12 -70 7 -5 12 -11 12 -15 -1 -3 2 -6 7 -6 8 1 6 24 -10 95 -12 59
-21 78 -31 69z"/>
<path d="M3210 3385 c0 -5 4 -16 9 -23 6 -10 11 -9 22 4 11 14 11 16 0 10 -8
-5 -17 -3 -22 5 -5 8 -9 10 -9 4z"/>
<path d="M2967 3265 c6 -54 9 -62 20 -52 3 4 -1 28 -9 55 l-16 47 5 -50z"/>
<path d="M2450 3554 c1 -5 11 -22 24 -38 25 -30 46 -21 27 11 -6 10 -11 14
-11 9 0 -5 -9 -1 -20 9 -11 10 -20 14 -20 9z"/>
<path d="M2562 3299 c2 -7 10 -15 17 -17 8 -3 12 1 9 9 -2 7 -10 15 -17 17 -8
3 -12 -1 -9 -9z"/>
<path d="M2677 3256 c-8 -21 8 -40 20 -24 8 9 7 16 -2 25 -10 9 -14 9 -18 -1z"/>
<path d="M2700 3201 c0 -6 4 -13 10 -16 6 -3 7 1 4 9 -7 18 -14 21 -14 7z"/>
<path d="M3670 3720 c0 -5 5 -10 11 -10 5 0 7 5 4 10 -3 6 -8 10 -11 10 -2 0
-4 -4 -4 -10z"/>
<path d="M2296 3611 c-4 -7 -5 -15 -2 -18 9 -9 19 4 14 18 -4 11 -6 11 -12 0z"/>
<path d="M1016 3374 c-22 -21 -20 -27 4 -12 11 7 20 16 20 20 0 12 -7 10 -24
-8z"/>
<path d="M2287 2780 c-136 -78 -206 -126 -239 -165 -39 -46 -13 -40 63 13 44
31 120 82 168 112 48 30 98 65 111 78 14 12 38 27 55 31 27 8 28 9 5 10 -14 0
-87 -36 -163 -79z"/>
<path d="M2695 2719 c-16 -5 -60 -16 -96 -24 -131 -28 -319 -129 -319 -171 0
-11 8 -9 33 9 41 31 112 67 132 67 8 0 15 4 15 9 0 5 8 11 18 14 9 3 55 21
101 41 47 20 100 39 118 42 18 3 33 10 33 15 0 5 -1 9 -2 8 -2 0 -16 -5 -33
-10z"/>
<path d="M2501 1647 c-12 -15 -103 -46 -226 -77 -78 -20 -56 -20 55 0 64 11
159 47 192 72 18 14 19 18 7 18 -9 0 -22 -6 -28 -13z"/>
<path d="M2050 1551 c0 -7 22 -11 52 -11 62 0 58 9 -6 16 -29 3 -46 1 -46 -5z"/>
<path d="M2310 1480 c-14 -4 -41 -9 -60 -9 l-35 -2 25 -14 c35 -20 45 -19 77
10 30 26 30 27 -7 15z"/>
<path d="M3291 2624 c0 -11 3 -14 6 -6 3 7 2 16 -1 19 -3 4 -6 -2 -5 -13z"/>
<path d="M1407 2983 c-4 -3 -7 -11 -7 -17 0 -6 5 -5 12 2 6 6 9 14 7 17 -3 3
-9 2 -12 -2z"/>
<path d="M1320 2760 c-6 -11 -8 -20 -6 -20 3 0 10 9 16 20 6 11 8 20 6 20 -3
0 -10 -9 -16 -20z"/>
<path d="M1280 2690 c-6 -11 -8 -20 -6 -20 3 0 10 9 16 20 6 11 8 20 6 20 -3
0 -10 -9 -16 -20z"/>
<path d="M797 2863 c-8 -13 -5 -63 3 -68 5 -3 24 4 43 15 46 27 41 60 -9 60
-18 0 -35 -3 -37 -7z"/>
<path d="M3375 2270 c3 -5 11 -10 16 -10 6 0 7 5 4 10 -3 6 -11 10 -16 10 -6
0 -7 -4 -4 -10z"/>
<path d="M3655 1919 c-10 -15 3 -25 16 -12 7 7 7 13 1 17 -6 3 -14 1 -17 -5z"/>
<path d="M2965 1399 c-4 -6 -5 -12 -2 -15 2 -3 7 2 10 11 7 17 1 20 -8 4z"/>
<path d="M2936 1362 c-3 -6 3 -12 15 -15 12 -3 19 -1 16 6 -5 15 -24 20 -31 9z"/>
<path d="M1090 1256 c0 -2 24 -23 53 -47 l52 -43 -35 38 c-32 35 -70 63 -70
52z"/>
<path d="M2530 1020 c12 -22 125 -110 141 -110 21 0 6 31 -28 58 -44 34 -104
72 -116 72 -4 0 -3 -9 3 -20z"/>
<path d="M1865 440 c11 -5 30 -9 43 -9 12 -1 22 -5 22 -11 0 -5 7 -7 17 -3 14
6 14 7 -3 13 -32 12 -102 21 -79 10z"/>
<path d="M3460 51 c0 -6 4 -13 10 -16 6 -3 7 1 4 9 -7 18 -14 21 -14 7z"/>
<path d="M1743 4213 c9 -2 23 -2 30 0 6 3 -1 5 -18 5 -16 0 -22 -2 -12 -5z"/>
<path d="M1688 4203 c7 -3 16 -2 19 1 4 3 -2 6 -13 5 -11 0 -14 -3 -6 -6z"/>
<path d="M1418 3793 c7 -3 16 -2 19 1 4 3 -2 6 -13 5 -11 0 -14 -3 -6 -6z"/>
<path d="M4242 3485 c0 -125 3 -202 8 -190 11 25 11 270 0 345 -5 37 -7 -15
-8 -155z"/>
<path d="M4221 3190 c-1 -3 -4 -25 -6 -50 -2 -37 -1 -40 6 -20 6 13 8 36 6 50
-2 14 -5 23 -6 20z"/>
<path d="M4180 3119 c0 -5 5 -7 10 -4 6 3 10 8 10 11 0 2 -4 4 -10 4 -5 0 -10
-5 -10 -11z"/>
<path d="M3714 2105 c-17 -13 -17 -14 -2 -15 9 0 20 5 23 11 11 17 0 20 -21 4z"/>
<path d="M4560 2080 c37 -31 61 -41 40 -15 -10 13 -9 15 11 16 16 0 9 5 -21
15 -65 20 -69 18 -30 -16z"/>
<path d="M4520 2051 c0 -5 5 -13 10 -16 6 -3 10 -2 10 4 0 5 -4 13 -10 16 -5
3 -10 2 -10 -4z"/>
<path d="M4701 1988 c57 -54 102 -112 94 -120 -3 -3 1 -5 8 -5 7 0 18 6 25 13
9 10 3 26 -28 71 -39 59 -88 93 -133 93 -18 0 -12 -9 34 -52z"/>
<path d="M4848 1837 c3 -23 11 -41 23 -48 13 -7 19 -6 19 1 0 6 5 8 10 5 11
-7 -11 -35 -27 -35 -5 0 -22 13 -38 30 -49 51 -40 24 12 -37 28 -32 55 -67 61
-78 11 -19 11 -19 12 4 0 14 -10 35 -22 48 -22 23 -12 33 10 11 9 -9 12 -5 12
18 0 19 -13 44 -38 73 l-38 45 4 -37z"/>
<path d="M4901 1284 c0 -11 3 -14 6 -6 3 7 2 16 -1 19 -3 4 -6 -2 -5 -13z"/>
<path d="M4871 1274 c0 -11 3 -14 6 -6 3 7 2 16 -1 19 -3 4 -6 -2 -5 -13z"/>
<path d="M3915 1200 c-3 -5 -1 -10 4 -10 6 0 11 5 11 10 0 6 -2 10 -4 10 -3 0
-8 -4 -11 -10z"/>
<path d="M4850 1160 c0 -24 25 -27 34 -4 5 14 4 15 -9 4 -13 -11 -14 -10 -9 4
3 9 1 16 -5 16 -6 0 -11 -9 -11 -20z"/>
<path d="M3611 1119 c-11 -19 -11 -21 4 -15 9 3 19 6 21 6 2 0 4 7 4 15 0 21
-13 19 -29 -6z"/>
<path d="M3835 1100 c-4 -6 3 -10 14 -10 25 0 27 6 6 13 -8 4 -17 2 -20 -3z"/>
<path d="M3625 1090 c-3 -5 0 -7 9 -4 10 4 14 0 13 -15 -2 -26 -15 -27 -34 -3
-13 15 -13 15 -4 -5 15 -30 14 -38 -5 -23 -13 11 -19 10 -37 -10 l-22 -24 22
18 c17 14 26 16 36 8 10 -8 17 -8 24 -1 6 6 17 8 24 3 9 -5 6 -10 -10 -16 -16
-5 -21 -13 -17 -24 3 -9 6 -23 6 -31 0 -10 6 -14 19 -10 10 2 26 0 35 -5 20
-11 20 -10 -5 56 -11 31 -17 61 -13 67 3 6 0 15 -7 20 -18 11 -26 11 -34 -1z"/>
<path d="M3803 1005 c0 -22 2 -30 4 -17 2 12 2 30 0 40 -3 9 -5 -1 -4 -23z"/>
<path d="M3596 958 c1 -13 3 -26 3 -30 1 -5 11 -7 24 -7 18 1 19 2 4 6 -14 4
-17 11 -13 29 4 16 2 24 -7 24 -8 0 -13 -9 -11 -22z"/>
<path d="M3905 960 c-19 -8 -19 -9 3 -9 12 -1 22 4 22 9 0 6 -1 10 -2 9 -2 0
-12 -4 -23 -9z"/>
<path d="M3565 930 c-3 -5 1 -10 9 -10 9 0 16 5 16 10 0 6 -4 10 -9 10 -6 0
-13 -4 -16 -10z"/>
<path d="M4705 920 c-3 -5 -1 -10 4 -10 6 0 11 5 11 10 0 6 -2 10 -4 10 -3 0
-8 -4 -11 -10z"/>
<path d="M3626 875 c4 -8 12 -15 20 -15 8 0 14 7 14 15 0 8 -9 15 -20 15 -13
0 -18 -5 -14 -15z"/>
<path d="M3685 777 c-4 -10 -5 -21 -1 -24 10 -10 18 4 13 24 -4 17 -4 17 -12
0z"/>
<path d="M4228 773 c-4 -18 37 -109 53 -119 12 -7 3 37 -19 93 -18 46 -28 53
-34 26z"/>
<path d="M4410 740 c0 -5 12 -10 28 -10 21 0 24 2 12 10 -20 13 -40 13 -40 0z"/>
<path d="M4290 711 c0 -11 4 -22 9 -25 4 -3 6 6 3 19 -5 30 -12 33 -12 6z"/>
<path d="M4509 713 c-13 -16 -12 -17 4 -4 9 7 17 15 17 17 0 8 -8 3 -21 -13z"/>
<path d="M4315 667 c-18 -14 -14 -37 8 -37 8 0 8 3 -1 12 -9 9 -7 14 6 24 23
18 11 18 -13 1z"/>
<path d="M3760 569 c0 -5 5 -7 10 -4 6 3 10 8 10 11 0 2 -4 4 -10 4 -5 0 -10
-5 -10 -11z"/>
<path d="M3736 511 c-4 -7 -5 -15 -2 -18 9 -9 19 4 14 18 -4 11 -6 11 -12 0z"/>
<path d="M3528 423 c-22 -5 -24 -29 -3 -37 10 -3 15 1 15 13 0 11 6 22 13 24
15 7 -2 6 -25 0z"/>
<path d="M4380 30 c0 -5 5 -10 10 -10 6 0 10 5 10 10 0 6 -4 10 -10 10 -5 0
-10 -4 -10 -10z"/>
</g>
</svg>
